<svg viewBox="0 0 400 200" style="width:100%;height:180px;">
  <!-- Grid lines -->
  <line x1="40" y1="20" x2="420" y2="20" stroke="#e2e8f0" stroke-width="1"/>
  <line x1="40" y1="70" x2="420" y2="70" stroke="#e2e8f0" stroke-width="1"/>
  <line x1="40" y1="120" x2="420" y2="120" stroke="#e2e8f0" stroke-width="1"/>
  <line x1="40" y1="170" x2="420" y2="170" stroke="#e2e8f0" stroke-width="1"/>
  
  <!-- Y-axis labels -->
  <text x="35" y="25" text-anchor="end" font-size="10" fill="#64748b">$75K</text>
  <text x="35" y="75" text-anchor="end" font-size="10" fill="#64748b">$70K</text>
  <text x="35" y="125" text-anchor="end" font-size="10" fill="#64748b">$65K</text>
  <text x="35" y="175" text-anchor="end" font-size="10" fill="#64748b">$60K</text>
  
  <!-- X-axis labels (4 months) -->
  <text x="40" y="195" text-anchor="middle" font-size="10" fill="#64748b">Nov 23</text>
  <text x="173" y="195" text-anchor="middle" font-size="10" fill="#64748b">Dec 23</text>
  <text x="306" y="195" text-anchor="middle" font-size="10" fill="#64748b">Jan 23</text>
  <text x="420" y="195" text-anchor="middle" font-size="10" fill="#64748b">Feb 23</text>
  
  <!-- Price Line (120 points) -->
  <path d="M0.0,37.2 L3.2,40.9 L6.4,42.3 L9.6,44.2 L12.8,41.4 L16.0,39.1 L19.2,34.9 L22.4,38.0 L25.5,38.0 L28.7,41.7 L31.9,43.6 L35.1,42.9 L38.3,46.6 L41.5,48.7 L44.7,46.6 L47.9,45.6 L51.1,47.5 L54.3,46.0 L57.5,42.5 L60.7,46.4 L63.9,42.9 L67.1,40.5 L70.3,41.3 L73.4,43.8 L76.6,39.0 L79.8,39.8 L83.0,42.9 L86.2,45.9 L89.4,42.1 L92.6,40.5 L95.8,37.0 L99.0,34.3 L102.2,33.3 L105.4,28.3 L108.6,28.8 L111.8,27.6 L115.0,24.0 L118.2,22.2 L121.3,18.3 L124.5,16.9 L127.7,18.1 L130.9,24.9 L134.1,30.2 L137.3,34.9 L140.5,41.4 L143.7,46.6 L146.9,52.9 L150.1,57.7 L153.3,59.5 L156.5,63.6 L159.7,67.6 L162.9,73.0 L166.1,77.9 L169.2,77.2 L172.4,78.8 L175.6,80.8 L178.8,86.6 L182.0,87.6 L185.2,93.3 L188.4,97.3 L191.6,96.1 L194.8,97.8 L198.0,100.3 L201.2,101.7 L204.4,101.7 L207.6,102.3 L210.8,107.5 L213.9,114.4 L217.1,118.9 L220.3,123.8 L223.5,129.2 L226.7,128.4 L229.9,128.1 L233.1,130.4 L236.3,130.4 L239.5,130.4 L242.7,129.9 L245.9,130.4 L249.1,130.4 L252.3,130.4 L255.5,130.4 L258.7,130.4 L261.8,130.4 L265.0,130.0 L268.2,130.4 L271.4,130.4 L274.6,129.2 L277.8,130.4 L281.0,130.4 L284.2,130.4 L287.4,130.4 L290.6,130.4 L293.8,130.4 L297.0,130.4 L300.2,130.4 L303.4,130.4 L306.6,129.2 L309.7,130.4 L312.9,129.4 L316.1,129.3 L319.3,130.4 L322.5,130.4 L325.7,130.4 L328.9,130.4 L332.1,130.4 L335.3,130.4 L338.5,130.4 L341.7,130.4 L344.9,130.4 L348.1,129.5 L351.3,129.3 L354.5,130.4 L357.6,130.4 L360.8,130.4 L364.0,129.9 L367.2,129.7 L370.4,130.4 L373.6,73.0 L376.8,75.0 L380.0,76.8" fill="none" stroke="#4f46e5" stroke-width="1.5" transform="translate(40,15)"/>
  
  <!-- EMA 9 -->
  <path d="M0.0,37.2 L3.2,37.9 L6.4,38.8 L9.6,39.9 L12.8,40.2 L16.0,40.0 L19.2,38.9 L22.4,38.7 L25.5,38.6 L28.7,39.2 L31.9,40.1 L35.1,40.7 L38.3,41.8 L41.5,43.2 L44.7,43.9 L47.9,44.2 L51.1,44.9 L54.3,45.1 L57.5,44.6 L60.7,45.0 L63.9,44.5 L67.1,43.7 L70.3,43.2 L73.4,43.4 L76.6,42.5 L79.8,41.9 L83.0,42.1 L86.2,42.9 L89.4,42.7 L92.6,42.3 L95.8,41.2 L99.0,39.8 L102.2,38.5 L105.4,36.5 L108.6,34.9 L111.8,33.5 L115.0,31.6 L118.2,29.7 L121.3,27.4 L124.5,25.3 L127.7,23.9 L130.9,24.1 L134.1,25.3 L137.3,27.2 L140.5,30.0 L143.7,33.4 L146.9,37.3 L150.1,41.4 L153.3,45.0 L156.5,48.7 L159.7,52.5 L162.9,56.6 L166.1,60.9 L169.2,64.1 L172.4,67.1 L175.6,69.8 L178.8,73.2 L182.0,76.0 L185.2,79.5 L188.4,83.1 L191.6,85.7 L194.8,88.1 L198.0,90.5 L201.2,92.8 L204.4,94.5 L207.6,96.1 L210.8,98.4 L213.9,101.6 L217.1,105.0 L220.3,108.8 L223.5,112.9 L226.7,116.0 L229.9,118.4 L233.1,120.8 L236.3,122.7 L239.5,124.3 L242.7,125.4 L245.9,126.4 L249.1,127.2 L252.3,127.9 L255.5,128.4 L258.7,128.8 L261.8,129.1 L265.0,129.3 L268.2,129.5 L271.4,129.7 L274.6,129.6 L277.8,129.8 L281.0,129.9 L284.2,130.0 L287.4,130.1 L290.6,130.2 L293.8,130.2 L297.0,130.3 L300.2,130.3 L303.4,130.3 L306.6,130.1 L309.7,130.2 L312.9,130.0 L316.1,129.9 L319.3,130.0 L322.5,130.1 L325.7,130.1 L328.9,130.2 L332.1,130.2 L335.3,130.3 L338.5,130.3 L341.7,130.3 L344.9,130.4 L348.1,130.2 L351.3,130.0 L354.5,130.1 L357.6,130.2 L360.8,130.2 L364.0,130.1 L367.2,130.0 L370.4,130.1 L373.6,118.7 L376.8,110.0 L380.0,103.3" fill="none" stroke="#f59e0b" stroke-width="1.5" transform="translate(40,15)"/>
  
  <!-- EMA 21 -->
  <path d="M0.0,37.2 L3.2,37.5 L6.4,38.0 L9.6,38.5 L12.8,38.8 L16.0,38.8 L19.2,38.5 L22.4,38.4 L25.5,38.4 L28.7,38.7 L31.9,39.1 L35.1,39.5 L38.3,40.1 L41.5,40.9 L44.7,41.4 L47.9,41.8 L51.1,42.3 L54.3,42.6 L57.5,42.6 L60.7,43.0 L63.9,43.0 L67.1,42.7 L70.3,42.6 L73.4,42.7 L76.6,42.4 L79.8,42.1 L83.0,42.2 L86.2,42.5 L89.4,42.5 L92.6,42.3 L95.8,41.8 L99.0,41.1 L102.2,40.4 L105.4,39.3 L108.6,38.4 L111.8,37.4 L115.0,36.2 L118.2,34.9 L121.3,33.4 L124.5,31.9 L127.7,30.6 L130.9,30.1 L134.1,30.1 L137.3,30.6 L140.5,31.5 L143.7,32.9 L146.9,34.7 L150.1,36.8 L153.3,38.9 L156.5,41.1 L159.7,43.5 L162.9,46.2 L166.1,49.1 L169.2,51.6 L172.4,54.1 L175.6,56.5 L178.8,59.3 L182.0,61.8 L185.2,64.7 L188.4,67.7 L191.6,70.3 L194.8,72.8 L198.0,75.3 L201.2,77.7 L204.4,79.8 L207.6,81.9 L210.8,84.2 L213.9,87.0 L217.1,89.9 L220.3,93.0 L223.5,96.2 L226.7,99.2 L229.9,101.8 L233.1,104.4 L236.3,106.8 L239.5,108.9 L242.7,110.8 L245.9,112.6 L249.1,114.2 L252.3,115.7 L255.5,117.0 L258.7,118.3 L261.8,119.4 L265.0,120.3 L268.2,121.2 L271.4,122.1 L274.6,122.7 L277.8,123.4 L281.0,124.1 L284.2,124.6 L287.4,125.2 L290.6,125.6 L293.8,126.1 L297.0,126.5 L300.2,126.8 L303.4,127.2 L306.6,127.3 L309.7,127.6 L312.9,127.8 L316.1,127.9 L319.3,128.1 L322.5,128.4 L325.7,128.5 L328.9,128.7 L332.1,128.9 L335.3,129.0 L338.5,129.1 L341.7,129.3 L344.9,129.4 L348.1,129.4 L351.3,129.4 L354.5,129.5 L357.6,129.6 L360.8,129.6 L364.0,129.7 L367.2,129.7 L370.4,129.7 L373.6,124.6 L376.8,120.1 L380.0,116.1" fill="none" stroke="#ef4444" stroke-width="1.5" transform="translate(40,15)"/>
  
  <!-- Current value -->
  <text x="420" y="92" font-size="11" fill="#4f46e5" font-weight="600">$66,217</text>
</svg>