<svg viewBox="0 0 400 200" style="width:100%;height:180px;">
  <!-- Grid lines -->
  <line x1="40" y1="20" x2="420" y2="20" stroke="#e2e8f0" stroke-width="1"/>
  <line x1="40" y1="57" x2="420" y2="57" stroke="#e2e8f0" stroke-width="1"/>
  <line x1="40" y1="95" x2="420" y2="95" stroke="#e2e8f0" stroke-width="1"/>
  <line x1="40" y1="132" x2="420" y2="132" stroke="#e2e8f0" stroke-width="1"/>
  <line x1="40" y1="170" x2="420" y2="170" stroke="#e2e8f0" stroke-width="1"/>
  
  <!-- Zero line -->
  <line x1="40" y1="132" x2="420" y2="132" stroke="#64748b" stroke-width="1" stroke-dasharray="4,2"/>
  
  <!-- Y-axis labels -->
  <text x="35" y="25" text-anchor="end" font-size="10" fill="#64748b">+200</text>
  <text x="35" y="62" text-anchor="end" font-size="10" fill="#64748b">+100</text>
  <text x="35" y="100" text-anchor="end" font-size="10" fill="#64748b">0</text>
  <text x="35" y="137" text-anchor="end" font-size="10" fill="#64748b">-100</text>
  <text x="35" y="175" text-anchor="end" font-size="10" fill="#64748b">-200</text>
  
  <!-- X-axis labels -->
  <text x="40" y="195" text-anchor="middle" font-size="10" fill="#64748b">Nov 23</text>
  <text x="230" y="195" text-anchor="middle" font-size="10" fill="#64748b">Jan 23</text>
  <text x="420" y="195" text-anchor="middle" font-size="10" fill="#64748b">Feb 23</text>
  
  <!-- MACD Lines -->
  <path d="M0.0,109.1 L4.3,118.5 L8.5,131.4 L12.8,147.6 L17.1,158.4 L21.3,165.8 L25.6,167.2 L29.9,176.1 L34.2,185.6 L38.4,201.6 L42.7,219.5 L47.0,234.4 L51.2,254.0 L55.5,274.4 L59.8,288.5 L64.0,298.9 L68.3,311.4 L72.6,319.7 L76.9,321.2 L81.1,329.7 L85.4,331.3 L89.7,329.3 L93.9,329.7 L98.2,335.0 L102.5,331.8 L106.7,331.4 L111.0,336.9 L115.3,346.9 L119.6,349.0 L123.8,348.5 L128.1,342.8 L132.4,334.4 L136.6,326.9 L140.9,313.5 L145.2,304.6 L149.4,296.9 L153.7,285.8 L158.0,275.5 L162.2,262.2 L166.5,251.1 L170.8,239.8 L175.1,238.5 L179.3,242.4 L183.6,249.3 L187.9,261.6 L192.1,275.8 L196.4,293.3 L200.7,309.9 L204.9,320.6 L209.2,326.6 L213.5,328.8 L217.8,328.0 L222.0,324.9 L226.3,315.5 L230.6,305.7 L234.8,296.4 L239.1,290.9 L243.4,283.3 L247.6,276.6 L251.9,269.5 L256.2,256.8 L260.4,245.2 L264.7,235.9 L269.0,226.5 L273.3,214.7 L277.5,202.3 L281.8,197.8 L286.1,196.6 L290.3,194.7 L294.6,192.2 L298.9,189.3 L303.1,181.5 L307.4,171.1 L311.7,167.2 L316.0,163.3 L320.2,162.9 L324.5,157.9 L328.8,156.2 L333.0,155.6 L337.3,154.7 L341.6,153.4 L345.8,151.9 L350.1,150.3 L354.4,144.6 L358.7,143.5 L362.9,142.4 L367.2,135.8 L371.5,86.7 L375.7,50.7 L380.0,24.6" fill="none" stroke="#3b82f6" stroke-width="2" transform="translate(40,10)"/>
  <path d="M0.0,109.1 L4.3,111.0 L8.5,115.1 L12.8,121.6 L17.1,128.9 L21.3,136.3 L25.6,142.5 L29.9,149.2 L34.2,156.5 L38.4,165.5 L42.7,176.3 L47.0,187.9 L51.2,201.1 L55.5,215.8 L59.8,230.3 L64.0,244.0 L68.3,257.5 L72.6,269.9 L76.9,280.2 L81.1,290.1 L85.4,298.3 L89.7,304.5 L93.9,309.6 L98.2,314.6 L102.5,318.1 L106.7,320.7 L111.0,324.0 L115.3,328.6 L119.6,332.6 L123.8,335.8 L128.1,337.2 L132.4,336.7 L136.6,334.7 L140.9,330.4 L145.2,325.3 L149.4,319.6 L153.7,312.9 L158.0,305.4 L162.2,296.8 L166.5,287.6 L170.8,278.1 L175.1,270.1 L179.3,264.6 L183.6,261.5 L187.9,261.5 L192.1,264.4 L196.4,270.2 L200.7,278.1 L204.9,286.6 L209.2,294.6 L213.5,301.4 L217.8,306.7 L222.0,310.4 L226.3,311.4 L230.6,310.3 L234.8,307.5 L239.1,304.2 L243.4,300.0 L247.6,295.3 L251.9,290.1 L256.2,283.5 L260.4,275.8 L264.7,267.8 L269.0,259.6 L273.3,250.6 L277.5,240.9 L281.8,232.3 L286.1,225.2 L290.3,219.1 L294.6,213.7 L298.9,208.8 L303.1,203.4 L307.4,196.9 L311.7,191.0 L316.0,185.4 L320.2,180.9 L324.5,176.3 L328.8,172.3 L333.0,169.0 L337.3,166.1 L341.6,163.6 L345.8,161.2 L350.1,159.1 L354.4,156.2 L358.7,153.6 L362.9,151.4 L367.2,148.3 L371.5,136.0 L375.7,118.9 L380.0,100.0" fill="none" stroke="#f59e0b" stroke-width="2" transform="translate(40,10)"/>
  
  <!-- Current value -->
  <text x="420" y="35" font-size="11" fill="#3b82f6" font-weight="600">619</text>
</svg>