<svg viewBox="0 0 400 200" style="width:100%;height:180px;">
  <!-- Grid lines -->
  <line x1="40" y1="20" x2="420" y2="20" stroke="#e2e8f0" stroke-width="1"/>
  <line x1="40" y1="70" x2="420" y2="70" stroke="#e2e8f0" stroke-width="1"/>
  <line x1="40" y1="120" x2="420" y2="120" stroke="#e2e8f0" stroke-width="1"/>
  <line x1="40" y1="170" x2="420" y2="170" stroke="#e2e8f0" stroke-width="1"/>
  
  <!-- Y-axis labels -->
  <text x="35" y="25" text-anchor="end" font-size="10" fill="#64748b">$75K</text>
  <text x="35" y="75" text-anchor="end" font-size="10" fill="#64748b">$70K</text>
  <text x="35" y="125" text-anchor="end" font-size="10" fill="#64748b">$65K</text>
  <text x="35" y="175" text-anchor="end" font-size="10" fill="#64748b">$60K</text>
  
  <!-- X-axis labels -->
  <text x="40" y="195" text-anchor="middle" font-size="10" fill="#64748b">Nov 23</text>
  <text x="230" y="195" text-anchor="middle" font-size="10" fill="#64748b">Jan 23</text>
  <text x="420" y="195" text-anchor="middle" font-size="10" fill="#64748b">Feb 23</text>
  
  <!-- Lines -->
  <path d="M0.0,9.4 L4.3,17.5 L8.5,22.4 L12.8,27.9 L17.1,26.6 L21.3,26.2 L25.6,22.9 L29.9,30.2 L34.2,33.1 L38.4,41.2 L42.7,46.7 L47.0,48.5 L51.2,56.6 L55.5,62.5 L59.8,62.4 L64.0,63.6 L68.3,69.2 L72.6,69.9 L76.9,67.7 L81.1,76.1 L85.4,73.9 L89.7,73.2 L93.9,77.2 L98.2,83.6 L102.5,79.4 L106.7,83.5 L111.0,90.7 L115.3,97.8 L119.6,95.2 L123.8,95.7 L128.1,93.5 L132.4,92.4 L136.6,93.8 L140.9,89.4 L145.2,92.9 L149.4,94.1 L153.7,91.7 L158.0,92.0 L162.2,89.1 L166.5,90.0 L170.8,89.2 L175.1,97.0 L179.3,102.4 L183.6,107.1 L187.9,114.5 L192.1,119.8 L196.4,127.0 L200.7,131.2 L204.9,131.2 L209.2,131.2 L213.5,131.2 L217.8,131.2 L222.0,131.2 L226.3,127.4 L230.6,127.3 L234.8,127.8 L239.1,131.2 L243.4,130.1 L247.6,131.2 L251.9,131.2 L256.2,126.7 L260.4,126.7 L264.7,127.9 L269.0,127.3 L273.3,124.7 L277.5,122.9 L281.8,128.4 L286.1,131.2 L290.3,131.2 L294.6,131.2 L298.9,131.2 L303.1,127.3 L307.4,124.2 L311.7,128.6 L316.0,128.4 L320.2,131.2 L324.5,127.7 L328.8,130.1 L333.0,131.2 L337.3,131.2 L341.6,131.2 L345.8,131.2 L350.1,131.2 L354.4,127.9 L358.7,131.1 L362.9,131.2 L367.2,126.6 L371.5,89.1 L375.7,90.9 L380.0,92.2" fill="none" stroke="#4f46e5" stroke-width="2" transform="translate(40,15)"/>
  <path d="M0.0,9.4 L4.3,11.0 L8.5,13.3 L12.8,16.2 L17.1,18.3 L21.3,19.9 L25.6,20.5 L29.9,22.4 L34.2,24.6 L38.4,27.9 L42.7,31.7 L47.0,35.0 L51.2,39.4 L55.5,44.0 L59.8,47.6 L64.0,50.8 L68.3,54.5 L72.6,57.6 L76.9,59.6 L81.1,62.9 L85.4,65.1 L89.7,66.7 L93.9,68.8 L98.2,71.8 L102.5,73.3 L106.7,75.3 L111.0,78.4 L115.3,82.3 L119.6,84.9 L123.8,87.0 L128.1,88.3 L132.4,89.1 L136.6,90.1 L140.9,89.9 L145.2,90.5 L149.4,91.2 L153.7,91.3 L158.0,91.5 L162.2,91.0 L166.5,90.8 L170.8,90.5 L175.1,91.8 L179.3,93.9 L183.6,96.5 L187.9,100.1 L192.1,104.1 L196.4,108.6 L200.7,113.2 L204.9,116.8 L209.2,119.7 L213.5,122.0 L217.8,123.8 L222.0,125.3 L226.3,125.7 L230.6,126.1 L234.8,126.4 L239.1,127.4 L243.4,127.9 L247.6,128.6 L251.9,129.1 L256.2,128.6 L260.4,128.3 L264.7,128.2 L269.0,128.0 L273.3,127.3 L277.5,126.5 L281.8,126.8 L286.1,127.7 L290.3,128.4 L294.6,129.0 L298.9,129.4 L303.1,129.0 L307.4,128.1 L311.7,128.2 L316.0,128.2 L320.2,128.8 L324.5,128.6 L328.8,128.9 L333.0,129.4 L337.3,129.7 L341.6,130.0 L345.8,130.3 L350.1,130.5 L354.4,130.0 L358.7,130.2 L362.9,130.4 L367.2,129.6 L371.5,121.5 L375.7,115.4 L380.0,110.8" fill="none" stroke="#f59e0b" stroke-width="2" transform="translate(40,15)"/>
  <path d="M0.0,9.4 L4.3,10.2 L8.5,11.3 L12.8,12.8 L17.1,14.0 L21.3,15.1 L25.6,15.8 L29.9,17.2 L34.2,18.6 L38.4,20.7 L42.7,23.0 L47.0,25.3 L51.2,28.2 L55.5,31.3 L59.8,34.1 L64.0,36.8 L68.3,39.8 L72.6,42.5 L76.9,44.8 L81.1,47.6 L85.4,50.0 L89.7,52.1 L93.9,54.4 L98.2,57.1 L102.5,59.1 L106.7,61.3 L111.0,64.0 L115.3,67.1 L119.6,69.6 L123.8,72.0 L128.1,73.9 L132.4,75.6 L136.6,77.3 L140.9,78.4 L145.2,79.7 L149.4,81.0 L153.7,82.0 L158.0,82.9 L162.2,83.4 L166.5,84.0 L170.8,84.5 L175.1,85.6 L179.3,87.2 L183.6,89.0 L187.9,91.3 L192.1,93.9 L196.4,96.9 L200.7,100.0 L204.9,102.9 L209.2,105.4 L213.5,107.8 L217.8,109.9 L222.0,111.9 L226.3,113.3 L230.6,114.5 L234.8,115.7 L239.1,117.2 L243.4,118.3 L247.6,119.5 L251.9,120.6 L256.2,121.1 L260.4,121.6 L264.7,122.2 L269.0,122.7 L273.3,122.9 L277.5,122.9 L281.8,123.4 L286.1,124.1 L290.3,124.7 L294.6,125.3 L298.9,125.9 L303.1,126.0 L307.4,125.8 L311.7,126.1 L316.0,126.3 L320.2,126.7 L324.5,126.8 L328.8,127.1 L333.0,127.5 L337.3,127.8 L341.6,128.2 L345.8,128.4 L350.1,128.7 L354.4,128.6 L358.7,128.8 L362.9,129.1 L367.2,128.8 L371.5,125.2 L375.7,122.1 L380.0,119.4" fill="none" stroke="#ef4444" stroke-width="2" transform="translate(40,15)"/>
  
  <!-- Current value -->
  <text x="420" y="107" font-size="11" fill="#4f46e5" font-weight="600">$66,166</text>
</svg>