<svg viewBox="0 0 400 200" style="width:100%;height:180px;">
  <!-- Grid lines -->
  <line x1="40" y1="20" x2="420" y2="20" stroke="#e2e8f0" stroke-width="1"/>
  <line x1="40" y1="57" x2="420" y2="57" stroke="#e2e8f0" stroke-width="1"/>
  <line x1="40" y1="95" x2="420" y2="95" stroke="#e2e8f0" stroke-width="1"/>
  <line x1="40" y1="132" x2="420" y2="132" stroke="#e2e8f0" stroke-width="1"/>
  <line x1="40" y1="170" x2="420" y2="170" stroke="#e2e8f0" stroke-width="1"/>
  
  <!-- Zero line -->
  <line x1="40" y1="132" x2="420" y2="132" stroke="#64748b" stroke-width="1" stroke-dasharray="4,2"/>
  
  <!-- Y-axis labels -->
  <text x="35" y="25" text-anchor="end" font-size="10" fill="#64748b">+200</text>
  <text x="35" y="62" text-anchor="end" font-size="10" fill="#64748b">+100</text>
  <text x="35" y="100" text-anchor="end" font-size="10" fill="#64748b">0</text>
  <text x="35" y="137" text-anchor="end" font-size="10" fill="#64748b">-100</text>
  <text x="35" y="175" text-anchor="end" font-size="10" fill="#64748b">-200</text>
  
  <!-- X-axis labels -->
  <text x="40" y="195" text-anchor="middle" font-size="10" fill="#64748b">Nov 23</text>
  <text x="173" y="195" text-anchor="middle" font-size="10" fill="#64748b">Dec 23</text>
  <text x="306" y="195" text-anchor="middle" font-size="10" fill="#64748b">Jan 23</text>
  <text x="420" y="195" text-anchor="middle" font-size="10" fill="#64748b">Feb 23</text>
  
  <!-- MACD Lines -->
  <path d="M0.0,120.0 L3.2,122.7 L6.4,125.8 L9.6,129.6 L12.8,130.3 L16.0,129.2 L19.2,125.0 L22.4,124.0 L25.5,123.2 L28.7,125.2 L31.9,128.2 L35.1,129.9 L38.3,133.8 L41.5,138.2 L44.7,140.0 L47.9,140.4 L51.1,141.8 L54.3,141.7 L57.5,138.7 L60.7,139.1 L63.9,136.6 L67.1,132.6 L70.3,130.0 L73.4,129.6 L76.6,125.7 L79.8,123.1 L83.0,123.4 L86.2,125.7 L89.4,124.7 L92.6,122.7 L95.8,118.5 L99.0,113.3 L102.2,108.5 L105.4,101.3 L108.6,96.1 L111.8,91.6 L115.0,85.6 L118.2,80.1 L121.3,73.3 L124.5,67.5 L127.7,64.5 L130.9,67.7 L134.1,74.6 L137.3,84.1 L140.5,96.7 L143.7,110.6 L146.9,126.3 L150.1,142.0 L153.3,155.4 L156.5,168.5 L159.7,181.1 L162.9,194.3 L166.1,207.4 L169.2,216.1 L172.4,223.0 L175.6,228.8 L178.8,236.2 L182.0,241.5 L185.2,248.4 L188.4,255.4 L191.6,258.3 L194.8,260.4 L198.0,262.2 L201.2,263.0 L204.4,262.0 L207.6,260.0 L210.8,260.7 L213.9,264.7 L217.1,269.5 L220.3,275.2 L223.5,281.8 L226.7,284.6 L229.9,284.6 L233.1,284.5 L236.3,282.6 L239.5,279.2 L242.7,274.3 L245.9,269.1 L249.1,263.3 L252.3,257.2 L255.5,250.8 L258.7,244.4 L261.8,237.9 L265.0,231.1 L268.2,224.9 L271.4,218.8 L274.6,212.0 L277.8,206.5 L281.0,201.2 L284.2,196.2 L287.4,191.4 L290.6,186.8 L293.8,182.4 L297.0,178.3 L300.2,174.4 L303.4,170.7 L306.6,166.3 L309.7,163.3 L312.9,159.6 L316.1,156.2 L319.3,154.0 L322.5,151.9 L325.7,149.9 L328.9,148.0 L332.1,146.1 L335.3,144.4 L338.5,142.8 L341.7,141.2 L344.9,139.8 L348.1,137.8 L351.3,135.8 L354.5,134.9 L357.6,134.1 L360.8,133.2 L364.0,132.0 L367.2,130.8 L370.4,130.2 L373.6,87.6 L376.8,56.0 L380.0,33.3" fill="none" stroke="#3b82f6" stroke-width="1.5" transform="translate(40,10)"/>
  <path d="M0.0,120.0 L3.2,120.5 L6.4,121.6 L9.6,123.2 L12.8,124.6 L16.0,125.5 L19.2,125.4 L22.4,125.1 L25.5,124.8 L28.7,124.9 L31.9,125.5 L35.1,126.4 L38.3,127.9 L41.5,129.9 L44.7,131.9 L47.9,133.6 L51.1,135.3 L54.3,136.6 L57.5,137.0 L60.7,137.4 L63.9,137.2 L67.1,136.3 L70.3,135.0 L73.4,133.9 L76.6,132.3 L79.8,130.5 L83.0,129.0 L86.2,128.4 L89.4,127.6 L92.6,126.7 L95.8,125.0 L99.0,122.7 L102.2,119.9 L105.4,116.1 L108.6,112.1 L111.8,108.0 L115.0,103.5 L118.2,98.9 L121.3,93.7 L124.5,88.5 L127.7,83.7 L130.9,80.5 L134.1,79.3 L137.3,80.3 L140.5,83.5 L143.7,89.0 L146.9,96.4 L150.1,105.5 L153.3,115.5 L156.5,126.1 L159.7,137.1 L162.9,148.5 L166.1,160.3 L169.2,171.5 L172.4,181.8 L175.6,191.2 L178.8,200.2 L182.0,208.4 L185.2,216.4 L188.4,224.2 L191.6,231.0 L194.8,236.9 L198.0,242.0 L201.2,246.2 L204.4,249.3 L207.6,251.5 L210.8,253.3 L213.9,255.6 L217.1,258.4 L220.3,261.8 L223.5,265.8 L226.7,269.5 L229.9,272.5 L233.1,274.9 L236.3,276.5 L239.5,277.0 L242.7,276.5 L245.9,275.0 L249.1,272.7 L252.3,269.6 L255.5,265.8 L258.7,261.5 L261.8,256.8 L265.0,251.7 L268.2,246.3 L271.4,240.8 L274.6,235.0 L277.8,229.3 L281.0,223.7 L284.2,218.2 L287.4,212.8 L290.6,207.6 L293.8,202.6 L297.0,197.7 L300.2,193.0 L303.4,188.6 L306.6,184.1 L309.7,180.0 L312.9,175.9 L316.1,172.0 L319.3,168.4 L322.5,165.1 L325.7,162.0 L328.9,159.2 L332.1,156.6 L335.3,154.2 L338.5,151.9 L341.7,149.8 L344.9,147.8 L348.1,145.8 L351.3,143.8 L354.5,142.0 L357.6,140.4 L360.8,139.0 L364.0,137.6 L367.2,136.2 L370.4,135.0 L373.6,125.5 L376.8,111.6 L380.0,96.0" fill="none" stroke="#f59e0b" stroke-width="1.5" transform="translate(40,10)"/>
  
  <!-- Current value -->
  <text x="420" y="43" font-size="11" fill="#3b82f6" font-weight="600">1445</text>
</svg>