<svg viewBox="0 0 400 200" style="width:100%;height:180px;">
  <!-- Grid lines -->
  <line x1="40" y1="20" x2="420" y2="20" stroke="#e2e8f0" stroke-width="1"/>
  <line x1="40" y1="57" x2="420" y2="57" stroke="#e2e8f0" stroke-width="1"/>
  <line x1="40" y1="95" x2="420" y2="95" stroke="#e2e8f0" stroke-width="1"/>
  <line x1="40" y1="132" x2="420" y2="132" stroke="#e2e8f0" stroke-width="1"/>
  <line x1="40" y1="170" x2="420" y2="170" stroke="#e2e8f0" stroke-width="1"/>
  
  <!-- Overbought/Oversold lines -->
  <line x1="40" y1="33" x2="420" y2="33" stroke="#ef4444" stroke-width="1" stroke-dasharray="4,2"/>
  <line x1="40" y1="157" x2="420" y2="157" stroke="#10b981" stroke-width="1" stroke-dasharray="4,2"/>
  
  <!-- Y-axis labels -->
  <text x="35" y="25" text-anchor="end" font-size="10" fill="#64748b">70</text>
  <text x="35" y="62" text-anchor="end" font-size="10" fill="#64748b">60</text>
  <text x="35" y="100" text-anchor="end" font-size="10" fill="#64748b">50</text>
  <text x="35" y="137" text-anchor="end" font-size="10" fill="#64748b">40</text>
  <text x="35" y="175" text-anchor="end" font-size="10" fill="#64748b">30</text>
  
  <!-- X-axis labels -->
  <text x="40" y="195" text-anchor="middle" font-size="10" fill="#64748b">Nov 23</text>
  <text x="230" y="195" text-anchor="middle" font-size="10" fill="#64748b">Jan 23</text>
  <text x="420" y="195" text-anchor="middle" font-size="10" fill="#64748b">Feb 23</text>
  
  <!-- RSI Line -->
  <path d="M0.0,85.7 L4.3,85.7 L8.5,85.7 L12.8,85.7 L17.1,85.7 L21.3,85.7 L25.6,85.7 L29.9,85.7 L34.2,85.7 L38.4,85.7 L42.7,85.7 L47.0,85.7 L51.2,85.7 L55.5,85.7 L59.8,175.7 L64.0,173.6 L68.3,173.9 L72.6,172.1 L76.9,168.6 L81.1,173.3 L85.4,177.0 L89.7,172.2 L93.9,172.6 L98.2,171.9 L102.5,154.1 L106.7,155.7 L111.0,155.1 L115.3,156.0 L119.6,147.9 L123.8,147.3 L128.1,135.5 L132.4,131.3 L136.6,139.4 L140.9,115.6 L145.2,127.0 L149.4,130.7 L153.7,117.9 L158.0,107.1 L162.2,111.0 L166.5,104.2 L170.8,80.5 L175.1,82.8 L179.3,108.1 L183.6,117.1 L187.9,136.5 L192.1,146.5 L196.4,151.4 L200.7,168.6 L204.9,166.9 L209.2,166.3 L213.5,176.1 L217.8,175.9 L222.0,188.9 L226.3,171.5 L230.6,174.6 L234.8,171.1 L239.1,169.9 L243.4,160.2 L247.6,152.6 L251.9,142.5 L256.2,84.3 L260.4,52.8 L264.7,62.8 L269.0,60.0 L273.3,48.7 L277.5,42.8 L281.8,74.0 L286.1,102.1 L290.3,102.4 L294.6,100.8 L298.9,85.7 L303.1,73.2 L307.4,56.8 L311.7,76.2 L316.0,92.7 L320.2,102.6 L324.5,85.1 L328.8,94.7 L333.0,108.0 L337.3,115.6 L341.6,98.4 L345.8,85.7 L350.1,85.7 L354.4,71.3 L358.7,85.1 L362.9,103.1 L367.2,95.5 L371.5,14.0 L375.7,19.7 L380.0,15.0" fill="none" stroke="#f59e0b" stroke-width="2" transform="translate(40,10)"/>
  
  <!-- Current value -->
  <text x="420" y="25" font-size="11" fill="#f59e0b" font-weight="600">83</text>
</svg>