<svg viewBox="0 0 400 200" style="width:100%;height:180px;">
  <!-- Grid lines -->
  <line x1="40" y1="20" x2="420" y2="20" stroke="#e2e8f0" stroke-width="1"/>
  <line x1="40" y1="57" x2="420" y2="57" stroke="#e2e8f0" stroke-width="1"/>
  <line x1="40" y1="95" x2="420" y2="95" stroke="#e2e8f0" stroke-width="1"/>
  <line x1="40" y1="132" x2="420" y2="132" stroke="#e2e8f0" stroke-width="1"/>
  <line x1="40" y1="170" x2="420" y2="170" stroke="#e2e8f0" stroke-width="1"/>
  
  <!-- Overbought/Oversold lines -->
  <line x1="40" y1="33" x2="420" y2="33" stroke="#ef4444" stroke-width="1" stroke-dasharray="4,2"/>
  <line x1="40" y1="157" x2="420" y2="157" stroke="#10b981" stroke-width="1" stroke-dasharray="4,2"/>
  
  <!-- Y-axis labels -->
  <text x="35" y="25" text-anchor="end" font-size="10" fill="#64748b">70</text>
  <text x="35" y="62" text-anchor="end" font-size="10" fill="#64748b">60</text>
  <text x="35" y="100" text-anchor="end" font-size="10" fill="#64748b">50</text>
  <text x="35" y="137" text-anchor="end" font-size="10" fill="#64748b">40</text>
  <text x="35" y="175" text-anchor="end" font-size="10" fill="#64748b">30</text>
  
  <!-- X-axis labels -->
  <text x="40" y="195" text-anchor="middle" font-size="10" fill="#64748b">Nov 23</text>
  <text x="173" y="195" text-anchor="middle" font-size="10" fill="#64748b">Dec 23</text>
  <text x="306" y="195" text-anchor="middle" font-size="10" fill="#64748b">Jan 23</text>
  <text x="420" y="195" text-anchor="middle" font-size="10" fill="#64748b">Feb 23</text>
  
  <!-- RSI Line -->
  <path d="M0.0,90.0 L3.2,90.0 L6.4,90.0 L9.6,90.0 L12.8,90.0 L16.0,90.0 L19.2,90.0 L22.4,90.0 L25.5,90.0 L28.7,90.0 L31.9,90.0 L35.1,90.0 L38.3,90.0 L41.5,90.0 L44.7,118.2 L47.9,105.2 L51.1,106.5 L54.3,96.0 L57.5,93.7 L60.7,112.0 L63.9,114.9 L67.1,97.9 L70.3,100.0 L73.4,96.7 L76.6,76.5 L79.8,81.0 L83.0,79.1 L86.2,82.0 L89.4,77.5 L92.6,76.2 L95.8,62.9 L99.0,60.6 L102.2,65.3 L105.4,43.1 L108.6,50.1 L111.8,52.5 L115.0,43.3 L118.2,30.7 L121.3,31.7 L124.5,26.4 L127.7,17.5 L130.9,34.6 L134.1,59.7 L137.3,76.8 L140.5,99.6 L143.7,115.7 L146.9,126.8 L150.1,145.4 L153.3,146.5 L156.5,152.7 L159.7,165.6 L162.9,172.7 L166.1,185.6 L169.2,187.5 L172.4,187.5 L175.6,187.3 L178.8,187.4 L182.0,187.2 L185.2,187.1 L188.4,187.1 L191.6,181.6 L194.8,181.0 L198.0,181.1 L201.2,180.6 L204.4,179.6 L207.6,178.1 L210.8,178.2 L213.9,183.9 L217.1,184.3 L220.3,184.6 L223.5,184.6 L226.7,180.9 L229.9,178.4 L233.1,177.8 L236.3,184.1 L239.5,183.8 L242.7,179.9 L245.9,179.7 L249.1,179.7 L252.3,179.5 L255.5,177.4 L258.7,172.9 L261.8,167.7 L265.0,149.6 L268.2,112.8 L271.4,134.7 L274.6,108.3 L277.8,90.0 L281.0,90.0 L284.2,90.0 L287.4,104.4 L290.6,90.0 L293.8,90.0 L297.0,90.0 L300.2,90.0 L303.4,90.0 L306.6,63.0 L309.7,97.9 L312.9,72.8 L316.1,71.2 L319.3,110.7 L322.5,90.0 L325.7,90.0 L328.9,90.0 L332.1,90.0 L335.3,90.0 L338.5,90.0 L341.7,90.0 L344.9,90.0 L348.1,74.3 L351.3,92.2 L354.5,90.0 L357.6,119.1 L360.8,123.7 L364.0,70.5 L367.2,65.2 L370.4,90.0 L373.6,-3.7 L376.8,2.3 L380.0,7.6" fill="none" stroke="#f59e0b" stroke-width="1.5" transform="translate(40,10)"/>
  
  <!-- Current value -->
  <text x="420" y="18" font-size="11" fill="#f59e0b" font-weight="600">91</text>
</svg>